<?xml version="1.0" standalone="no"?>
<!DOCTYPE svg PUBLIC "-//W3C//DTD SVG 20010904//EN"
 "http://www.w3.org/TR/2001/REC-SVG-20010904/DTD/svg10.dtd">
<svg version="1.0" xmlns="http://www.w3.org/2000/svg"
 width="260.000000pt" height="260.000000pt" viewBox="0 0 260.000000 260.000000"
 preserveAspectRatio="xMidYMid meet">
<metadata>
Created by potrace 1.11, written by Peter Selinger 2001-2013
</metadata>
<g transform="translate(0.000000,260.000000) scale(0.100000,-0.100000)"
fill="#000000" stroke="none">
<path d="M1676 2414 c-154 -37 -327 -178 -398 -324 -93 -190 -86 -418 17 -597
16 -27 64 -84 109 -128 126 -125 256 -178 431 -178 177 1 310 57 441 188 92
92 141 177 170 299 19 81 11 126 -21 126 -23 0 -111 -47 -270 -144 l-139 -85
-76 42 c-41 22 -100 55 -130 72 l-55 31 -3 159 -2 160 192 110 c234 134 246
143 231 178 -14 30 -96 71 -185 92 -78 18 -234 18 -312 -1z"/>
<path d="M683 1058 c-264 -266 -488 -497 -497 -515 -21 -43 -20 -106 3 -151
11 -20 63 -80 118 -133 109 -107 145 -125 221 -114 46 6 56 16 544 503 l497
496 -60 32 c-132 71 -236 175 -302 301 -17 35 -34 63 -37 63 -3 0 -222 -217
-487 -482z m-59 -419 c37 -17 59 -69 45 -108 -11 -32 -53 -61 -88 -61 -11 0
-33 12 -50 26 -42 35 -43 84 -2 125 32 31 55 36 95 18z"/>
</g>
</svg>
